<svg version="1.1"
	 xmlns="http://www.w3.org/2000/svg" xmlns:xlink="http://www.w3.org/1999/xlink" xmlns:a="http://ns.adobe.com/AdobeSVGViewerExtensions/3.0/"
	 x="0px" y="0px" width="90.9px" height="90.9px" viewBox="0 0 90.9 90.9" style="enable-background:new 0 0 90.9 90.9;"
	 xml:space="preserve">
<style type="text/css">
	.st0{fill:#CFCFCF;}
	.st1{fill:#80AC65;}
</style>
<defs>
</defs>
<g>
	<path class="st0" d="M45.4,0C20.4,0,0,20.4,0,45.4s20.4,45.4,45.4,45.4c25.1,0,45.4-20.4,45.4-45.4S70.5,0,45.4,0z M45.4,89.9
		C20.9,89.9,1,69.9,1,45.4S20.9,1,45.4,1s44.4,19.9,44.4,44.4S69.9,89.9,45.4,89.9z"/>
	<path class="st1" d="M22.1,58.5l-2.3-0.1l-1.7-4.2l1.6-1.6l-0.6-1.5l-6.9,7.2l0.6,1.5l9.9,0.2L22.1,58.5z M14.2,58.3l2.8-3l1.3,3.1
		L14.2,58.3z M24.6,64.5l3.8,3.2l-1.6,1.9l-3.3-2.8l-0.9,1l3.3,2.8l-1.6,1.8l-3.7-3.1l-0.9,1.1l4.9,4.1l5.9-6.9l-5-4.2L24.6,64.5z
		 M28.2,25.3l-2.3-3l3.2-2.5l-0.9-1.1l-3.2,2.5l-1.5-2l3.6-2.8l-0.9-1.1l-4.8,3.7l5.6,7.2L28.2,25.3z M69.8,32.4
		c-0.4,0.9-0.3,1.9,0.1,3c0.4,1,1.1,1.8,2,2.1c0.9,0.4,2,0.3,3.2-0.2l4.7-2l-0.6-1.4l-4.6,1.9c-0.8,0.3-1.5,0.4-2.1,0.2
		c-0.6-0.2-1-0.6-1.3-1.3c-0.3-0.7-0.3-1.3,0-1.8c0.3-0.6,0.8-1,1.6-1.3l4.6-1.9l-0.6-1.4l-4.7,2C70.9,30.7,70.1,31.4,69.8,32.4z
		 M63.2,25.8l5-5.9l2.1,1.8l0.9-1.1l-5.4-4.6l-0.9,1.1l2.1,1.8l-5,5.9L63.2,25.8z M39.4,71.4L38,71l-2,7.4l-2.7-0.7L33,79l6.8,1.8
		l0.4-1.4l-2.7-0.7L39.4,71.4z M59,68.3c-1.5,0.8-2.5,1.8-2.8,3c-0.3,1.1-0.2,2.3,0.5,3.6s1.6,2,2.7,2.3c1.1,0.3,2.4,0,3.9-0.8
		l2.7-1.5l-4.4-8L59,68.3z M62.6,75.1c-2.1,1.1-3.6,0.8-4.6-1c-0.5-0.9-0.6-1.7-0.4-2.5c0.3-0.7,0.9-1.4,1.8-1.9l1.5-0.8l3,5.5
		L62.6,75.1z M72.2,44.8L72,46.4l3,0.3l-0.2,2l-3.3,1.8l-0.2,1.9l3.5-2c0.2,1.3,1.1,2.1,2.6,2.3c1,0.1,1.8-0.1,2.3-0.7
		c0.5-0.5,0.9-1.5,1-2.9l0.4-3.4L72.2,44.8z M79.5,49.1c-0.1,0.8-0.3,1.4-0.5,1.7c-0.3,0.3-0.7,0.4-1.3,0.3c-0.6-0.1-1-0.3-1.2-0.6
		c-0.2-0.3-0.3-0.9-0.2-1.8l0.2-1.9l3.2,0.3L79.5,49.1z M65.7,63l1.2,0.8l2.7-4.2l2,1.3l-2.4,3.6l1.1,0.7l2.4-3.6l2,1.3l-2.7,4.1
		l1.2,0.8l3.5-5.3l-7.6-5L65.7,63z M38,18.5l-0.5-2.4l4.3-0.9l-0.3-1.3l-4.3,0.9l-0.5-2.3l4.7-1L41.1,10l-6.2,1.4l2,8.9l6.4-1.4
		l-0.3-1.4L38,18.5z M55.5,11.3l-1.6-0.4l-6.2,7.7l1.6,0.4l1.4-1.8l4.4,1.2l0.3,2.2l1.6,0.4L55.5,11.3z M51.6,16.1l2.6-3.2l0.6,4
		L51.6,16.1z"/>
</g>
</svg>