<svg version="1.1"
	 xmlns="http://www.w3.org/2000/svg" xmlns:xlink="http://www.w3.org/1999/xlink" xmlns:a="http://ns.adobe.com/AdobeSVGViewerExtensions/3.0/"
	 x="0px" y="0px" width="24.5px" height="24.5px" viewBox="0 0 24.5 24.5" style="enable-background:new 0 0 24.5 24.5;"
	 xml:space="preserve">
<style type="text/css">
	.st0{fill:#A2A2A2;}
	.st1{fill:none;}
</style>
<defs>
</defs>
<path class="st0" d="M20,12.6l3.3-9.1H6.9l-1-2.5H2.3c-0.4,0-0.8,0.3-0.8,0.8s0.3,0.8,0.8,0.8h2.6l0.8,2c0,0,0,0,0,0l2.9,8H20z
	 M21.1,5.1l-2.2,6.1H9.7L7.5,5.1H21.1z M9.7,13.7c-1.6,0-2.9,1.3-2.9,2.9c0,1.6,1.3,2.9,2.9,2.9c1.6,0,2.9-1.3,2.9-2.9
	C12.6,15,11.3,13.7,9.7,13.7z M9.7,17.9c-0.8,0-1.4-0.6-1.4-1.4c0-0.8,0.6-1.4,1.4-1.4c0.8,0,1.4,0.6,1.4,1.4
	C11.1,17.3,10.5,17.9,9.7,17.9z M18.8,13.7c-1.6,0-2.9,1.3-2.9,2.9c0,1.6,1.3,2.9,2.9,2.9c1.6,0,2.9-1.3,2.9-2.9
	C21.7,15,20.4,13.7,18.8,13.7z M18.8,17.9c-0.8,0-1.4-0.6-1.4-1.4c0-0.8,0.6-1.4,1.4-1.4s1.4,0.6,1.4,1.4
	C20.2,17.3,19.6,17.9,18.8,17.9z"/>
<rect class="st1" width="24.5" height="24.5"/>
</svg>