<svg version="1.1"
	 xmlns="http://www.w3.org/2000/svg" xmlns:xlink="http://www.w3.org/1999/xlink" xmlns:a="http://ns.adobe.com/AdobeSVGViewerExtensions/3.0/"
	 x="0px" y="0px" width="27.9px" height="27.8px" viewBox="0 0 27.9 27.8" style="enable-background:new 0 0 27.9 27.8;"
	 xml:space="preserve">
<style type="text/css">
	.st0{fill:#FFFFFF;}
</style>
<defs>
</defs>
<path class="st0" d="M21.4,4.8c-0.9,0-1.7,0.7-1.7,1.7c0,0.9,0.7,1.7,1.7,1.7c0.9,0,1.7-0.7,1.7-1.7C23,5.6,22.3,4.8,21.4,4.8z
	 M19.8,0H8.1C3.6,0,0,3.6,0,8.1v11.6c0,4.5,3.6,8.1,8.1,8.1h11.6c4.5,0,8.1-3.6,8.1-8.1V8.1C27.9,3.6,24.2,0,19.8,0z M25.4,19.7
	c0,3.1-2.5,5.6-5.6,5.6H8.1c-3.1,0-5.6-2.5-5.6-5.6V8.1C2.5,5,5,2.5,8.1,2.5h11.6c3.1,0,5.6,2.5,5.6,5.6V19.7z M13.9,6.7
	c-3.9,0-7.2,3.2-7.2,7.2c0,3.9,3.2,7.2,7.2,7.2c3.9,0,7.2-3.2,7.2-7.2C21.1,9.9,17.9,6.7,13.9,6.7z M13.9,18.6
	c-2.6,0-4.7-2.1-4.7-4.7s2.1-4.7,4.7-4.7c2.6,0,4.7,2.1,4.7,4.7S16.5,18.6,13.9,18.6z"/>
</svg>