<?xml version="1.0" standalone="no"?>
<!DOCTYPE svg PUBLIC "-//W3C//DTD SVG 20010904//EN"
 "http://www.w3.org/TR/2001/REC-SVG-20010904/DTD/svg10.dtd">
<svg version="1.0" xmlns="http://www.w3.org/2000/svg"
 width="211.000000pt" height="211.000000pt" viewBox="0 0 211.000000 211.000000"
 preserveAspectRatio="xMidYMid meet">
<metadata>
Created by potrace 1.11, written by Peter Selinger 2001-2013
</metadata>
<g transform="translate(0.000000,211.000000) scale(0.100000,-0.100000)"
fill="#000000" stroke="none">
<path d="M950 2090 c20 -13 33 -13 25 0 -3 6 -14 10 -23 10 -15 0 -15 -2 -2
-10z"/>
<path d="M840 2043 c-14 -3 -27 -9 -30 -13 -3 -4 -25 -10 -49 -14 -25 -3 -50
-11 -55 -17 -8 -7 -5 -8 9 -3 11 4 17 4 14 0 -9 -10 -51 -17 -45 -7 3 4 -1 8
-9 8 -8 0 -12 -3 -10 -7 6 -10 -42 -30 -73 -30 -20 0 -37 -12 -62 -40 -19 -22
-40 -40 -47 -40 -12 0 -25 -34 -27 -73 -1 -13 -9 -21 -26 -24 -13 -2 -29 -9
-35 -15 -7 -8 -6 -9 4 -3 10 6 12 4 7 -4 -4 -6 -16 -9 -27 -6 -14 5 -17 3 -13
-9 4 -9 0 -18 -10 -22 -9 -3 -14 -10 -11 -14 6 -10 -12 -23 -35 -27 -8 -1 -16
-7 -18 -12 -5 -16 -22 -13 -22 4 0 19 36 39 45 25 4 -6 11 -7 18 -3 7 4 4 9
-9 13 -17 6 -16 9 11 23 17 9 26 16 21 17 -5 0 -1 10 10 22 19 22 19 23 -1 8
-11 -8 -41 -32 -68 -54 -45 -38 -47 -40 -32 -62 14 -21 13 -26 -7 -61 -12 -21
-28 -44 -35 -51 -7 -7 -20 -26 -30 -42 -21 -37 -38 -43 -55 -22 -11 15 -11 15
3 5 18 -14 39 0 39 25 0 8 16 34 36 58 39 48 51 84 29 84 -9 0 -12 -6 -9 -15
4 -8 1 -15 -6 -15 -6 0 -8 5 -4 12 4 7 3 8 -5 4 -6 -4 -9 -11 -6 -16 8 -13
-25 -61 -36 -54 -5 3 -9 -4 -9 -15 0 -11 -5 -23 -11 -26 -6 -4 -8 -13 -5 -21
4 -12 2 -12 -15 -4 -11 6 -17 16 -13 23 4 7 1 6 -7 -2 -11 -11 -11 -14 -1 -18
10 -4 10 -8 0 -21 -7 -9 -8 -13 -3 -10 6 4 16 -1 22 -11 9 -14 8 -18 -3 -18
-7 0 -11 4 -8 9 3 4 2 8 -1 8 -3 0 -11 -13 -16 -30 -6 -16 -15 -28 -19 -25 -4
3 -6 -3 -3 -14 3 -10 -1 -22 -8 -27 -9 -5 -11 -2 -6 9 3 10 2 17 -4 17 -6 0
-9 -8 -7 -17 2 -10 8 -18 13 -18 6 0 16 -4 24 -9 8 -5 16 -4 22 5 12 20 11 1
-3 -38 -15 -41 -26 -43 -20 -4 6 46 -15 46 -39 -1 -12 -24 -21 -43 -20 -43 6
0 -12 -81 -22 -100 -9 -17 -8 -18 5 -7 10 8 19 9 22 4 3 -6 0 -12 -8 -15 -9
-4 -12 -14 -9 -28 4 -13 2 -20 -4 -16 -5 3 -10 0 -10 -8 0 -8 4 -12 8 -10 4 3
6 -6 5 -19 0 -13 -4 -22 -9 -19 -12 7 1 -127 17 -176 6 -18 10 -20 17 -10 6
10 8 8 6 -8 0 -12 -4 -20 -8 -17 -4 2 -3 -11 2 -30 5 -19 8 -40 7 -48 -2 -7 3
-12 10 -10 9 2 12 -4 8 -16 -8 -23 3 -54 14 -47 5 3 11 1 15 -5 3 -5 1 -10 -5
-10 -7 0 -9 -8 -5 -21 5 -16 4 -19 -5 -14 -15 9 -12 3 33 -65 17 -25 44 -60
61 -78 24 -25 28 -35 17 -41 -9 -6 -10 -11 -2 -15 6 -4 11 -2 11 5 0 8 4 8 15
-1 8 -7 13 -16 10 -20 -3 -5 0 -12 6 -15 5 -4 8 -13 5 -20 -3 -8 3 -19 12 -27
16 -12 16 -11 2 7 -14 19 -14 19 3 6 9 -7 17 -21 17 -31 0 -32 44 -49 66 -27
7 7 -18 11 -43 8 -19 -3 -16 16 3 23 16 6 15 8 0 25 -13 15 -14 18 -1 18 8 0
12 -4 9 -8 -2 -4 0 -10 6 -14 6 -4 8 -11 5 -16 -4 -5 -2 -9 3 -9 5 0 21 -12
35 -26 14 -14 30 -23 35 -21 4 3 13 -3 20 -14 12 -18 11 -18 -8 -7 -17 11 -22
11 -29 -1 -7 -11 -10 -9 -13 8 -1 12 -7 20 -13 19 -5 -2 -9 -7 -7 -12 2 -5 -5
-3 -14 5 -11 9 -16 10 -13 2 7 -22 113 -94 128 -88 9 3 12 3 8 -1 -8 -8 53
-52 80 -58 35 -6 121 -52 135 -71 5 -6 8 -6 8 1 0 6 -10 19 -22 27 l-23 16 23
-6 c13 -3 27 -16 32 -29 11 -28 43 -39 71 -24 12 7 19 8 15 2 -6 -10 15 -20
99 -46 71 -22 115 -28 115 -16 0 5 -10 11 -22 11 -13 1 -27 2 -33 3 -53 12
-76 20 -86 32 -6 8 -16 11 -22 7 -6 -3 -7 -1 -3 5 5 8 13 8 24 2 27 -15 116
-30 125 -21 5 5 25 7 45 4 25 -3 33 -1 23 5 -9 6 22 11 90 14 67 3 107 1 111
-6 5 -8 8 -8 8 0 0 8 13 9 38 5 50 -9 70 -7 116 13 21 9 45 16 53 16 47 0 161
78 147 101 -4 8 -3 9 5 5 6 -4 18 -2 26 4 14 12 20 5 17 -21 -1 -3 5 -6 13 -6
7 0 12 8 10 18 -2 10 1 22 7 25 6 4 8 3 5 -3 -9 -15 16 -23 34 -12 11 7 10 9
-6 9 -17 0 -16 3 8 18 15 9 25 23 22 30 -3 7 0 10 5 7 11 -7 77 64 72 78 -1 4
2 6 7 3 10 -6 78 93 73 107 -1 5 9 22 22 38 14 16 28 38 31 49 4 11 11 18 16
15 5 -3 6 2 2 11 -4 11 -2 15 4 11 7 -5 10 4 9 22 -1 17 2 27 8 24 5 -4 7 0 4
8 -3 8 0 20 8 26 10 10 13 10 17 0 2 -7 4 3 3 20 -1 18 -5 33 -10 33 -7 0 -6
29 9 165 12 110 13 135 4 140 -5 4 -9 -5 -9 -18 0 -39 -12 -87 -21 -87 -5 0
-4 11 1 24 5 15 5 27 -3 35 -8 8 -8 11 0 11 6 0 10 11 8 25 -2 23 6 30 28 26
5 -1 6 3 3 8 -4 5 2 12 13 16 11 3 24 12 31 20 9 11 8 14 -9 12 -11 0 -19 -6
-18 -11 1 -6 -2 -10 -8 -11 -5 0 -16 -4 -23 -9 -8 -5 -18 -4 -25 3 -9 9 -8 11
3 6 11 -4 16 2 16 25 1 20 -2 27 -10 23 -6 -4 -5 1 3 10 9 11 10 17 2 17 -6 0
-11 5 -11 11 0 5 4 8 9 5 5 -4 7 3 4 14 -3 11 -9 23 -14 26 -5 3 -4 14 1 25 8
14 7 19 -2 20 -7 0 -3 5 10 11 12 6 22 15 22 20 0 5 -4 6 -10 3 -5 -3 -10 1
-10 10 0 10 -5 13 -12 9 -7 -5 -8 -3 -2 7 11 18 12 31 3 44 -9 13 -33 98 -31
108 1 4 -5 15 -13 24 -9 8 -14 21 -12 28 3 6 -1 12 -9 12 -17 0 -17 3 0 -38
27 -68 29 -74 32 -84 1 -5 7 -24 12 -42 9 -26 8 -31 -4 -26 -8 3 -12 8 -10 11
3 3 -2 11 -12 19 -9 8 -11 12 -4 8 15 -8 16 11 1 21 -8 4 -7 9 2 15 10 6 11 9
2 9 -7 0 -13 9 -13 20 0 11 -3 20 -7 20 -5 0 -16 20 -26 45 -12 28 -23 42 -30
38 -7 -3 -9 -3 -5 2 9 10 -19 65 -34 65 -6 0 -8 3 -5 6 8 8 -24 64 -36 64 -4
0 -6 4 -3 8 3 5 -1 9 -9 9 -12 0 -10 -7 5 -32 31 -51 23 -53 -12 -5 -18 25
-33 49 -33 54 0 5 -9 14 -19 20 -29 16 -66 60 -56 66 5 3 1 14 -7 25 -15 20
-15 20 -8 -2 7 -26 -7 -30 -25 -8 -7 9 -20 13 -29 10 -8 -3 -12 -3 -8 1 3 4
-19 20 -51 37 -31 16 -65 36 -74 44 -10 9 -25 13 -35 9 -9 -4 -14 -4 -10 0 9
9 -30 37 -41 30 -5 -3 -44 8 -88 25 -43 16 -89 30 -101 31 -13 1 -23 5 -23 9
0 4 -24 9 -54 11 -30 1 -52 0 -50 -4 3 -4 -5 -6 -17 -5 -11 1 -25 9 -29 18 -7
12 -24 16 -65 17 -30 0 -55 -3 -55 -7 0 -4 -9 -7 -20 -8 -11 -1 -18 2 -15 8 4
5 5 8 3 8 -2 -1 -14 -4 -28 -6z m170 -19 c0 -13 -36 -12 -50 2 -6 6 1 10 20 9
17 0 30 -5 30 -11z m-143 -10 c-2 -2 -16 -5 -30 -6 -15 -1 -29 -8 -32 -16 -3
-7 -10 -10 -16 -6 -19 11 30 42 58 36 13 -2 22 -6 20 -8z m-287 -78 c0 -2 -7
-7 -16 -10 -8 -3 -12 -2 -9 4 6 10 25 14 25 6z m1297 -438 c-3 -8 -6 -5 -6 6
-1 11 2 17 5 13 3 -3 4 -12 1 -19z m25 -32 c7 4 8 2 4 -5 -9 -13 -26 -5 -25
12 0 9 2 8 6 -1 2 -6 10 -9 15 -6z m17 -49 c0 -9 -2 -8 -6 1 -2 6 -10 9 -15 6
-7 -4 -8 -2 -4 5 9 13 26 5 25 -12z m10 -34 c0 -10 -3 -13 -5 -6 -3 7 -13 9
-22 6 -15 -4 -15 -3 -2 6 22 15 30 14 29 -6z m8 -45 c-3 -8 -6 -5 -6 6 -1 11
2 17 5 13 3 -3 4 -12 1 -19z m-30 -50 c2 -33 0 -30 -18 26 -7 22 -6 26 4 18 7
-6 13 -26 14 -44z m87 -8 c10 -13 9 -13 -6 -1 -10 7 -18 21 -17 30 0 13 1 14
6 1 3 -8 11 -22 17 -30z m-1892 -20 c3 -8 0 -24 -5 -35 -6 -11 -12 -27 -12
-35 -1 -16 -13 -72 -21 -103 -9 -29 -22 -10 -20 28 2 19 5 38 8 41 4 3 2 19
-3 36 -5 20 -5 36 1 43 5 7 7 15 3 18 -3 4 -1 7 6 7 7 0 11 -7 8 -15 -4 -8 -1
-17 5 -21 7 -4 8 -3 4 4 -4 7 -3 12 3 12 13 0 7 33 -7 38 -7 2 -10 8 -6 13 6
10 28 -8 36 -31z m1873 -12 c4 -18 8 -60 10 -93 3 -46 1 -54 -6 -36 -5 13 -8
39 -7 58 1 19 -4 40 -13 49 -9 9 -14 25 -11 40 6 31 18 23 27 -18z m-32 -50
c8 -5 7 -8 -3 -8 -12 0 -12 -2 -2 -9 10 -6 11 -17 4 -42 -5 -19 -8 -42 -6 -52
1 -9 -2 -14 -7 -11 -6 3 -9 25 -8 48 2 23 -1 48 -5 54 -4 7 -2 12 5 12 9 0 10
3 3 10 -6 6 -8 25 -5 43 l6 32 3 -35 c2 -19 9 -38 15 -42z m25 -133 c-1 -19
-6 -35 -10 -35 -4 0 -7 16 -5 35 1 19 6 35 10 35 4 0 7 -16 5 -35z m-1908 -24
c-5 -11 -7 -21 -2 -24 4 -2 1 -2 -5 -1 -7 2 -13 -1 -13 -6 0 -6 5 -10 11 -10
6 0 9 -6 6 -14 -3 -7 0 -19 6 -25 8 -8 8 -11 0 -11 -7 0 -9 -12 -6 -32 4 -26
2 -31 -8 -21 -15 15 -23 143 -8 143 6 0 7 5 4 10 -3 6 1 10 10 10 12 0 14 -4
5 -19z m1944 -146 c-4 -8 -8 -15 -10 -15 -2 0 -4 7 -4 15 0 8 4 15 10 15 5 0
7 -7 4 -15z m-4 -39 c0 -3 -4 -8 -10 -11 -5 -3 -10 -1 -10 4 0 6 5 11 10 11 6
0 10 -2 10 -4z m-17 -56 c3 -11 2 -18 -2 -16 -4 3 -15 -18 -24 -45 -10 -28
-22 -47 -28 -43 -6 4 -4 13 7 25 9 10 14 19 9 19 -4 0 -2 6 4 14 6 8 11 18 10
22 -2 9 11 44 16 44 1 0 5 -9 8 -20z m-1886 -12 c-3 -8 -6 -5 -6 6 -1 11 2 17
5 13 3 -3 4 -12 1 -19z m37 -137 c4 -5 0 -11 -6 -14 -9 -3 -7 -10 7 -22 11 -9
14 -14 8 -10 -7 3 -13 0 -13 -7 0 -7 -8 -2 -17 12 -12 17 -13 25 -5 28 7 2 10
8 6 13 -3 5 -1 9 5 9 5 0 12 -4 15 -9z m1832 -37 c-4 -9 -9 -15 -11 -12 -3 3
-3 13 1 22 4 9 9 15 11 12 3 -3 3 -13 -1 -22z m-40 -92 c-14 -22 -30 -44 -37
-47 -6 -4 -4 4 5 17 18 27 13 39 -12 31 -14 -4 -15 -3 -2 5 9 7 19 7 26 2 7
-7 15 -2 24 15 7 14 15 23 17 21 3 -2 -7 -22 -21 -44z m-116 -46 c0 -2 -8 -10
-17 -17 -16 -13 -17 -12 -4 4 13 16 21 21 21 13z m68 -45 c-12 -15 -28 -36
-34 -46 -9 -16 -10 -14 -10 11 1 19 -4 28 -12 26 -8 -1 -11 2 -7 8 5 8 11 8
20 0 11 -9 18 -7 32 9 27 32 38 25 11 -8z m-48 -25 c0 -3 -4 -8 -10 -11 -5 -3
-10 -1 -10 4 0 6 5 11 10 11 6 0 10 -2 10 -4z m-37 -63 c-5 -12 -3 -14 8 -8 8
5 3 -4 -10 -18 -13 -15 -27 -25 -31 -22 -10 6 -70 -33 -70 -45 0 -6 -4 -9 -9
-5 -6 3 -14 -3 -20 -12 -6 -10 -11 -14 -11 -9 0 5 -7 3 -15 -4 -13 -11 -14
-10 -9 4 4 11 1 16 -11 16 -9 0 -13 -4 -10 -10 3 -5 2 -10 -4 -10 -5 0 -13 -9
-16 -21 -6 -17 -9 -18 -23 -7 -13 11 -15 11 -9 -4 4 -13 2 -15 -10 -11 -11 4
-14 2 -9 -5 4 -7 2 -12 -4 -12 -6 0 -8 -4 -5 -10 3 -6 -1 -7 -10 -4 -14 6 -14
8 0 24 8 9 12 20 8 25 -5 4 -3 5 4 2 6 -4 13 -4 15 0 6 15 79 73 91 73 7 0 6
-4 -3 -10 -17 -11 -10 -13 14 -4 9 3 13 10 10 15 -3 5 3 12 13 16 10 3 34 20
53 37 19 17 28 22 20 11 -8 -11 -21 -26 -29 -32 -13 -11 -13 -13 1 -13 9 0 20
5 23 11 4 6 13 8 21 5 7 -3 16 -1 19 4 4 6 1 10 -6 10 -7 0 -5 8 6 20 22 24
26 25 18 3z m-1298 -105 c-12 -7 -21 -6 -32 4 -12 13 -10 14 18 10 27 -4 29
-6 14 -14z m29 -17 c9 -13 -37 -22 -49 -9 -7 8 -6 9 2 4 6 -3 14 -2 18 4 8 12
22 13 29 1z m930 -73 c-5 -8 0 -9 14 -6 12 4 22 2 22 -3 0 -5 -4 -9 -9 -9 -5
0 -17 -3 -27 -7 -12 -4 -15 -3 -10 5 4 7 1 12 -8 12 -8 0 -18 -4 -21 -10 -3
-5 -1 -10 6 -10 7 0 10 -3 6 -6 -3 -3 -13 -2 -22 3 -14 8 -12 12 17 26 40 20
41 20 32 5z m-729 -16 c-3 -3 -11 0 -18 7 -9 10 -8 11 6 5 10 -3 15 -9 12 -12z
m225 -27 c0 -8 -2 -15 -4 -15 -2 0 -6 7 -10 15 -3 8 -1 15 4 15 6 0 10 -7 10
-15z m420 5 c-8 -5 -19 -10 -25 -10 -5 0 -3 5 5 10 8 5 20 10 25 10 6 0 3 -5
-5 -10z m-40 -14 c0 -2 -9 -6 -20 -9 -11 -3 -20 -1 -20 4 0 5 9 9 20 9 11 0
20 -2 20 -4z m-283 -12 c-3 -3 -12 -4 -19 -1 -8 3 -5 6 6 6 11 1 17 -2 13 -5z"/>
<path d="M1570 215 c-7 -9 -8 -15 -2 -15 5 0 12 7 16 15 3 8 4 15 2 15 -2 0
-9 -7 -16 -15z"/>
<path d="M1030 2029 c0 -5 5 -7 10 -4 6 3 10 8 10 11 0 2 -4 4 -10 4 -5 0 -10
-5 -10 -11z"/>
<path d="M620 2000 c8 -5 20 -10 25 -10 6 0 3 5 -5 10 -8 5 -19 10 -25 10 -5
0 -3 -5 5 -10z"/>
<path d="M1370 1999 c0 -7 3 -9 7 -6 3 4 13 1 21 -6 13 -10 14 -9 10 3 -6 19
-38 26 -38 9z"/>
<path d="M538 1973 c7 -3 16 -2 19 1 4 3 -2 6 -13 5 -11 0 -14 -3 -6 -6z"/>
<path d="M1370 1960 c-9 -6 -10 -10 -3 -10 6 0 15 5 18 10 8 12 4 12 -15 0z"/>
<path d="M420 1940 c0 -6 7 -10 15 -10 8 0 15 2 15 4 0 2 -7 6 -15 10 -8 3
-15 1 -15 -4z"/>
<path d="M497 1919 c-9 -5 -22 -7 -29 -3 -6 4 -8 3 -5 -3 3 -5 -12 -20 -33
-32 -22 -12 -45 -30 -52 -40 -7 -10 -17 -20 -23 -22 -5 -2 -9 -8 -7 -12 1 -5
-1 -6 -6 -3 -5 3 -18 -2 -28 -10 -10 -9 -13 -12 -5 -8 9 5 12 3 7 -5 -4 -6
-13 -10 -19 -9 -17 4 -67 -46 -68 -68 0 -12 -3 -14 -6 -6 -4 10 -11 8 -29 -9
-17 -15 -21 -25 -13 -30 8 -5 6 -15 -8 -35 -11 -16 -26 -40 -33 -54 l-12 -25
21 23 c12 12 26 20 30 18 4 -3 13 5 21 17 12 20 12 21 -3 8 -25 -20 -21 1 6
29 12 14 21 28 20 32 -2 4 5 4 15 1 9 -3 14 -2 9 2 -4 5 1 17 10 27 16 18 16
19 -3 13 -10 -3 -3 3 16 14 19 10 44 28 55 38 35 33 75 56 75 44 0 -7 5 -9 11
-5 8 5 6 10 -5 16 -15 8 -12 13 20 39 20 16 41 29 46 29 6 0 21 9 35 20 27 21
21 27 -10 9z m-294 -244 c-3 -9 -8 -14 -10 -11 -3 3 -2 9 2 15 9 16 15 13 8
-4z"/>
<path d="M1490 1916 c0 -2 7 -7 16 -10 8 -3 12 -2 9 4 -6 10 -25 14 -25 6z"/>
<path d="M66 1435 c-9 -26 -7 -32 5 -12 6 10 9 21 6 23 -2 3 -7 -2 -11 -11z"/>
<path d="M2018 1253 c10 -4 10 -8 1 -19 -9 -11 -9 -18 -1 -26 7 -7 12 -37 12
-67 0 -67 6 -64 13 7 3 32 2 52 -5 52 -6 0 -7 12 -3 30 5 25 4 30 -12 29 -11
0 -13 -3 -5 -6z"/>
<path d="M2059 998 c0 -13 -2 -33 -3 -45 -2 -13 1 -23 6 -23 4 0 8 20 8 45 0
45 -9 65 -11 23z"/>
<path d="M2055 910 c-3 -5 -1 -10 4 -10 6 0 11 5 11 10 0 6 -2 10 -4 10 -3 0
-8 -4 -11 -10z"/>
<path d="M2052 865 c0 -16 2 -22 5 -12 2 9 2 23 0 30 -3 6 -5 -1 -5 -18z"/>
<path d="M2032 780 c-7 -24 -11 -45 -8 -48 8 -8 27 49 24 71 -2 12 -8 3 -16
-23z"/>
<path d="M1608 163 c7 -3 16 -2 19 1 4 3 -2 6 -13 5 -11 0 -14 -3 -6 -6z"/>
<path d="M1585 130 c-3 -6 1 -7 9 -4 18 7 21 14 7 14 -6 0 -13 -4 -16 -10z"/>
<path d="M1038 3 c7 -3 16 -2 19 1 4 3 -2 6 -13 5 -11 0 -14 -3 -6 -6z"/>
</g>
</svg>
